<mxfile host="app.diagrams.net" agent="Mozilla/5.0 (Windows NT 10.0; Win64; x64) AppleWebKit/537.36 (KHTML, like Gecko) Chrome/131.0.0.0 Safari/537.36" version="26.0.9">
  <diagram name="Страница — 1" id="DqHycbe3qLpQGqbkHDm2">
    <mxGraphModel dx="1050" dy="557" grid="1" gridSize="10" guides="1" tooltips="1" connect="1" arrows="1" fold="1" page="1" pageScale="1" pageWidth="827" pageHeight="1169" math="0" shadow="0">
      <root>
        <mxCell id="0" />
        <mxCell id="1" parent="0" />
        <mxCell id="LPPem-RSJ64gdG7gIUwe-33" style="edgeStyle=orthogonalEdgeStyle;rounded=0;orthogonalLoop=1;jettySize=auto;html=1;exitX=0.75;exitY=0.1;exitDx=0;exitDy=0;exitPerimeter=0;entryX=0;entryY=1;entryDx=0;entryDy=0;" parent="1" source="LPPem-RSJ64gdG7gIUwe-5" target="LPPem-RSJ64gdG7gIUwe-7" edge="1">
          <mxGeometry relative="1" as="geometry" />
        </mxCell>
        <mxCell id="LPPem-RSJ64gdG7gIUwe-40" style="edgeStyle=orthogonalEdgeStyle;rounded=0;orthogonalLoop=1;jettySize=auto;html=1;exitX=1;exitY=1;exitDx=0;exitDy=0;exitPerimeter=0;entryX=0;entryY=0.5;entryDx=0;entryDy=0;" parent="1" source="LPPem-RSJ64gdG7gIUwe-5" target="LPPem-RSJ64gdG7gIUwe-30" edge="1">
          <mxGeometry relative="1" as="geometry">
            <Array as="points">
              <mxPoint x="160" y="210" />
              <mxPoint x="160" y="310" />
            </Array>
          </mxGeometry>
        </mxCell>
        <mxCell id="LPPem-RSJ64gdG7gIUwe-41" style="edgeStyle=orthogonalEdgeStyle;rounded=0;orthogonalLoop=1;jettySize=auto;html=1;exitX=1;exitY=1;exitDx=0;exitDy=0;exitPerimeter=0;entryX=0.5;entryY=0;entryDx=0;entryDy=0;" parent="1" source="LPPem-RSJ64gdG7gIUwe-5" target="LPPem-RSJ64gdG7gIUwe-28" edge="1">
          <mxGeometry relative="1" as="geometry">
            <Array as="points">
              <mxPoint x="130" y="210" />
              <mxPoint x="130" y="330" />
              <mxPoint x="270" y="330" />
            </Array>
          </mxGeometry>
        </mxCell>
        <mxCell id="LPPem-RSJ64gdG7gIUwe-42" style="edgeStyle=orthogonalEdgeStyle;rounded=0;orthogonalLoop=1;jettySize=auto;html=1;exitX=0;exitY=1;exitDx=0;exitDy=0;exitPerimeter=0;entryX=0;entryY=0;entryDx=0;entryDy=0;" parent="1" source="LPPem-RSJ64gdG7gIUwe-5" target="LPPem-RSJ64gdG7gIUwe-29" edge="1">
          <mxGeometry relative="1" as="geometry">
            <Array as="points">
              <mxPoint x="40" y="210" />
              <mxPoint x="40" y="290" />
              <mxPoint x="28" y="290" />
            </Array>
          </mxGeometry>
        </mxCell>
        <mxCell id="LPPem-RSJ64gdG7gIUwe-5" value="Арендатор" style="shape=umlActor;verticalLabelPosition=bottom;verticalAlign=top;html=1;outlineConnect=0;" parent="1" vertex="1">
          <mxGeometry x="70" y="150" width="30" height="60" as="geometry" />
        </mxCell>
        <mxCell id="LPPem-RSJ64gdG7gIUwe-7" value="Поиск квартиры по любым критериям" style="ellipse;whiteSpace=wrap;html=1;" parent="1" vertex="1">
          <mxGeometry x="220" y="90" width="120" height="80" as="geometry" />
        </mxCell>
        <mxCell id="LPPem-RSJ64gdG7gIUwe-9" value="Использовать AI для глубинного анализа предложений рынка" style="ellipse;whiteSpace=wrap;html=1;" parent="1" vertex="1">
          <mxGeometry x="660" y="30" width="140" height="90" as="geometry" />
        </mxCell>
        <mxCell id="LPPem-RSJ64gdG7gIUwe-44" style="edgeStyle=orthogonalEdgeStyle;rounded=0;orthogonalLoop=1;jettySize=auto;html=1;exitX=0.5;exitY=0.5;exitDx=0;exitDy=0;exitPerimeter=0;entryX=1;entryY=0.5;entryDx=0;entryDy=0;" parent="1" source="LPPem-RSJ64gdG7gIUwe-21" target="LPPem-RSJ64gdG7gIUwe-43" edge="1">
          <mxGeometry relative="1" as="geometry" />
        </mxCell>
        <mxCell id="LPPem-RSJ64gdG7gIUwe-21" value="Арендодатель" style="shape=umlActor;verticalLabelPosition=bottom;verticalAlign=top;html=1;" parent="1" vertex="1">
          <mxGeometry x="680" y="400" width="30" height="60" as="geometry" />
        </mxCell>
        <mxCell id="LPPem-RSJ64gdG7gIUwe-36" style="edgeStyle=orthogonalEdgeStyle;rounded=0;orthogonalLoop=1;jettySize=auto;html=1;exitX=0;exitY=0.3333333333333333;exitDx=0;exitDy=0;exitPerimeter=0;" parent="1" source="LPPem-RSJ64gdG7gIUwe-24" target="LPPem-RSJ64gdG7gIUwe-26" edge="1">
          <mxGeometry relative="1" as="geometry">
            <Array as="points">
              <mxPoint x="690" y="230" />
              <mxPoint x="525" y="230" />
            </Array>
          </mxGeometry>
        </mxCell>
        <mxCell id="LPPem-RSJ64gdG7gIUwe-37" style="edgeStyle=orthogonalEdgeStyle;rounded=0;orthogonalLoop=1;jettySize=auto;html=1;exitX=1;exitY=0.3333333333333333;exitDx=0;exitDy=0;exitPerimeter=0;entryX=1;entryY=1;entryDx=0;entryDy=0;" parent="1" source="LPPem-RSJ64gdG7gIUwe-24" target="LPPem-RSJ64gdG7gIUwe-9" edge="1">
          <mxGeometry relative="1" as="geometry">
            <Array as="points">
              <mxPoint x="720" y="230" />
              <mxPoint x="780" y="230" />
            </Array>
          </mxGeometry>
        </mxCell>
        <mxCell id="LPPem-RSJ64gdG7gIUwe-24" value="Система поиска (AI)" style="shape=umlActor;verticalLabelPosition=bottom;verticalAlign=top;html=1;outlineConnect=0;" parent="1" vertex="1">
          <mxGeometry x="690" y="230" width="30" height="60" as="geometry" />
        </mxCell>
        <mxCell id="LPPem-RSJ64gdG7gIUwe-26" value="Парсинг данных на вебсайтах недвижимости" style="ellipse;whiteSpace=wrap;html=1;" parent="1" vertex="1">
          <mxGeometry x="460" y="50" width="130" height="90" as="geometry" />
        </mxCell>
        <mxCell id="LPPem-RSJ64gdG7gIUwe-28" value="Просмотр квартиры на карте города" style="ellipse;whiteSpace=wrap;html=1;" parent="1" vertex="1">
          <mxGeometry x="210" y="450" width="120" height="80" as="geometry" />
        </mxCell>
        <mxCell id="LPPem-RSJ64gdG7gIUwe-29" value="Выбор квартиры" style="ellipse;whiteSpace=wrap;html=1;" parent="1" vertex="1">
          <mxGeometry x="10" y="370" width="120" height="80" as="geometry" />
        </mxCell>
        <mxCell id="LPPem-RSJ64gdG7gIUwe-30" value="Связь с продавцом" style="ellipse;whiteSpace=wrap;html=1;" parent="1" vertex="1">
          <mxGeometry x="400" y="270" width="120" height="80" as="geometry" />
        </mxCell>
        <mxCell id="LPPem-RSJ64gdG7gIUwe-34" value="" style="endArrow=block;dashed=1;endFill=0;endSize=12;html=1;rounded=0;exitX=0;exitY=0.5;exitDx=0;exitDy=0;entryX=1;entryY=0.5;entryDx=0;entryDy=0;" parent="1" source="LPPem-RSJ64gdG7gIUwe-9" target="LPPem-RSJ64gdG7gIUwe-26" edge="1">
          <mxGeometry width="160" relative="1" as="geometry">
            <mxPoint x="330" y="310" as="sourcePoint" />
            <mxPoint x="490" y="310" as="targetPoint" />
          </mxGeometry>
        </mxCell>
        <mxCell id="LPPem-RSJ64gdG7gIUwe-38" value="" style="endArrow=block;dashed=1;endFill=0;endSize=12;html=1;rounded=0;exitX=0.5;exitY=0.5;exitDx=0;exitDy=0;exitPerimeter=0;entryX=0.987;entryY=0.752;entryDx=0;entryDy=0;entryPerimeter=0;" parent="1" source="LPPem-RSJ64gdG7gIUwe-24" target="LPPem-RSJ64gdG7gIUwe-7" edge="1">
          <mxGeometry width="160" relative="1" as="geometry">
            <mxPoint x="410" y="210" as="sourcePoint" />
            <mxPoint x="570" y="210" as="targetPoint" />
          </mxGeometry>
        </mxCell>
        <mxCell id="LPPem-RSJ64gdG7gIUwe-43" value="Связь с клиентом" style="ellipse;whiteSpace=wrap;html=1;" parent="1" vertex="1">
          <mxGeometry x="414" y="400" width="120" height="80" as="geometry" />
        </mxCell>
      </root>
    </mxGraphModel>
  </diagram>
</mxfile>
